<svg width="125" height="24" viewBox="0 0 125 24" fill="none" xmlns="http://www.w3.org/2000/svg">
<path fill-rule="evenodd" clip-rule="evenodd" d="M26.7661 0.804688V20.1294H32.3007V13.7507H34.2162L37.7955 20.1294H43.8078L39.6678 12.9243C40.7254 12.4432 41.5546 11.7594 42.1554 10.8728C42.8058 9.92289 43.131 8.75599 43.131 7.37206C43.131 6.00071 42.8157 4.82437 42.1853 3.84304C41.5549 2.86171 40.6722 2.10998 39.5375 1.58787C38.4027 1.06575 37.0788 0.804688 35.5657 0.804688H26.7661ZM32.3007 9.67441H34.2517C34.9021 9.67441 35.4562 9.59892 35.9141 9.44795C36.3786 9.29069 36.7337 9.04221 36.9792 8.70252C37.2314 8.36283 37.3575 7.91934 37.3575 7.37206C37.3575 6.81849 37.2314 6.36871 36.9792 6.02273C36.7337 5.67045 36.3786 5.41254 35.9141 5.24898C35.4562 5.07914 34.9021 4.99422 34.2517 4.99422H32.3007V9.67441ZM44.9327 5.03196V0.804688H62.6513V5.03196H56.5194V20.1294H51.0645V5.03196H44.9327ZM64.7343 0.804688V20.1294H70.2689V13.7507H72.1843L75.7636 20.1294H81.776L77.636 12.9243C78.6936 12.4432 79.5228 11.7594 80.1236 10.8728C80.774 9.92289 81.0991 8.75599 81.0991 7.37206C81.0991 6.00071 80.7839 4.82437 80.1535 3.84304C79.523 2.86171 78.6404 2.10998 77.5056 1.58787C76.3709 1.06575 75.0469 0.804688 73.5339 0.804688H64.7343ZM70.2689 9.67441H72.2199C72.8703 9.67441 73.4244 9.59892 73.8823 9.44795C74.3468 9.29069 74.7019 9.04221 74.9474 8.70252C75.1996 8.36283 75.3257 7.91934 75.3257 7.37206C75.3257 6.81849 75.1996 6.36871 74.9474 6.02273C74.7019 5.67045 74.3468 5.41254 73.8823 5.24898C73.4244 5.07914 72.8703 4.99422 72.2199 4.99422H70.2689V9.67441ZM88.7539 20.1294H82.7814L89.5105 0.804688H97.0757L103.805 20.1294H97.8322L96.6543 16.4305H89.9319L88.7539 20.1294ZM93.3727 6.12652L95.4041 12.5052H91.182L93.2135 6.12652H93.3727ZM111.701 0.804688L115.046 6.42847H115.205L118.589 0.804688H124.761L118.669 10.467L125 20.1294H118.669L115.205 14.3923H115.046L111.582 20.1294H105.29L111.542 10.467L105.489 0.804688H111.701Z" fill="#1C1C1F"/>
<path fill-rule="evenodd" clip-rule="evenodd" d="M5.73563 15.6656V5.91156H15.1994V15.6656H14.7693L12.6184 12.7098H7.45632L9.60719 15.6656H5.73563ZM13.9089 21.5772H2.86782C1.28397 21.5772 0 20.2538 0 18.6214V2.95578C0 1.32335 1.28397 0 2.86782 0H18.0672C19.6511 0 20.9351 1.32335 20.9351 2.95578V18.6214C20.9351 19.9311 20.1086 21.0419 18.9638 21.4299L20.3615 23.3506H15.1994L13.9089 21.5772Z" fill="url(#paint0_linear_103_647)"/>
<defs>
<linearGradient id="paint0_linear_103_647" x1="-5.00609e-07" y1="0.350586" x2="21" y2="23.3506" gradientUnits="userSpaceOnUse">
<stop stop-color="#6D0BD4"/>
<stop offset="0.510417" stop-color="#204ACD"/>
<stop offset="1" stop-color="#01A2B3"/>
</linearGradient>
</defs>
</svg>
